<svg _ngcontent-ng-c440731796="" width="170" height="40" viewBox="0 0 175 44" fill="none" xmlns="http://www.w3.org/2000/svg" class="logo-image"><mask _ngcontent-ng-c440731796="" id="mask0_5087_2223" maskUnits="userSpaceOnUse" x="0" y="0" width="43" height="44" style="mask-type: luminance;"><path _ngcontent-ng-c440731796="" d="M42.341 0.0537109H0V43.3718H42.341V0.0537109Z" fill="white"></path></mask><g _ngcontent-ng-c440731796="" mask="url(#mask0_5087_2223)"><path _ngcontent-ng-c440731796="" d="M18.5649 6.2124C17.8839 5.53139 17.499 4.61351 17.499 3.66602C17.499 2.71853 17.8839 1.80065 18.5649 1.11964C19.2459 0.438629 20.1638 0.0537109 21.1113 0.0537109C22.0884 0.0537109 22.9766 0.438629 23.6577 1.11964C24.3387 1.80065 24.7236 2.68892 24.7236 3.66602C24.7236 4.64312 24.3387 5.53139 23.6577 6.2124C22.9766 6.89341 22.0588 7.27832 21.1113 7.27832C20.1638 7.24872 19.2755 6.89341 18.5649 6.2124Z" fill="white" fill-opacity="0.4"></path><path _ngcontent-ng-c440731796="" d="M8.49781 14.8872C7.8168 14.2062 7.43188 13.2883 7.43188 12.3408C7.43188 11.3933 7.8168 10.4755 8.49781 9.79444C9.17882 9.11343 10.0671 8.72852 11.0442 8.72852C12.0213 8.72852 12.9096 9.11343 13.5906 9.79444C14.2716 10.4755 14.6565 11.3637 14.6565 12.3408C14.6565 13.3179 14.2716 14.2062 13.5906 14.8872C12.9096 15.5682 11.9917 15.9531 11.0442 15.9531C10.0967 15.9235 9.17882 15.5682 8.49781 14.8872Z" fill="white" fill-opacity="0.4"></path><path _ngcontent-ng-c440731796="" d="M27.9509 16.0718C27.2699 15.3908 26.885 14.4729 26.885 13.5254C26.885 12.5779 27.2699 11.66 27.9509 10.979C28.6319 10.298 29.5202 9.91309 30.4973 9.91309C31.4744 9.91309 32.3627 10.298 33.0437 10.979C33.7247 11.66 34.1096 12.5483 34.1096 13.5254C34.1096 14.5025 33.7247 15.3908 33.0437 16.0718C32.3627 16.7528 31.4448 17.1377 30.4973 17.1377C29.5498 17.1377 28.6319 16.7528 27.9509 16.0718Z" fill="white" fill-opacity="0.4"></path><path _ngcontent-ng-c440731796="" d="M36.2119 24.6284C35.5309 23.9474 35.146 23.0295 35.146 22.082C35.146 21.1345 35.5309 20.2167 36.2119 19.5357C36.8929 18.8546 37.7812 18.4697 38.7583 18.4697C39.7354 18.4697 40.6237 18.8546 41.3047 19.5357C41.9857 20.2167 42.3706 21.1049 42.3706 22.082C42.3706 23.0591 41.9857 23.9474 41.3047 24.6284C40.6237 25.3094 39.7058 25.6943 38.7583 25.6943C37.7812 25.6943 36.8929 25.3094 36.2119 24.6284Z" fill="white" fill-opacity="0.4"></path><path _ngcontent-ng-c440731796="" d="M28.5432 33.6304C27.8622 32.9494 27.4773 32.0315 27.4773 31.084C27.4773 30.1365 27.8622 29.2186 28.5432 28.5376C29.2242 27.8566 30.1125 27.4717 31.0896 27.4717C32.0667 27.4717 32.955 27.8566 33.636 28.5376C34.317 29.2186 34.7019 30.1069 34.7019 31.084C34.7019 32.0611 34.317 32.9494 33.636 33.6304C32.955 34.3114 32.0371 34.6963 31.0896 34.6963C30.1421 34.6963 29.2242 34.3114 28.5432 33.6304Z" fill="white" fill-opacity="0.4"></path><path _ngcontent-ng-c440731796="" d="M18.5649 42.3354C17.8839 41.6544 17.499 40.7366 17.499 39.7891C17.499 38.8416 17.8839 37.9237 18.5649 37.2427C19.2459 36.5617 20.1342 36.1768 21.1113 36.1768C22.0884 36.1768 22.9766 36.5617 23.6577 37.2427C24.3387 37.9237 24.7236 38.812 24.7236 39.7891C24.7236 40.7662 24.3387 41.6544 23.6577 42.3354C22.9766 43.0165 22.0588 43.4014 21.1113 43.4014C20.1638 43.3718 19.2459 43.0165 18.5649 42.3354Z" fill="white" fill-opacity="0.4"></path><path _ngcontent-ng-c440731796="" fill-rule="evenodd" clip-rule="evenodd" d="M11.6364 35.4662C12.1989 35.7623 12.8207 35.94 13.5017 35.9104C14.4492 35.8808 15.3671 35.4958 16.0185 34.7852C16.1666 34.6372 16.285 34.4891 16.4034 34.2523C16.433 34.193 16.4626 34.1338 16.5219 34.0746C16.6107 33.9562 16.6699 33.8081 16.7291 33.6897C16.7587 33.6305 16.7883 33.5416 16.818 33.4824C16.8772 33.364 16.9068 33.2159 16.9364 33.0383L16.966 32.9791V32.9495V32.9198L16.9956 32.1204C16.9956 32.0908 16.9956 32.0316 16.9956 32.002C16.9956 31.9724 16.9956 31.9724 16.9956 31.9427C16.9956 31.9131 16.9956 31.8539 16.966 31.8243C16.966 31.7947 16.966 31.7355 16.966 31.7059C16.966 31.6763 16.966 31.617 16.9364 31.5874V31.5578V31.5282C16.8476 30.1662 17.3509 28.7746 18.328 27.7087C19.3051 26.6427 20.6375 26.0209 22.0292 25.9913H22.2068H22.2364H22.266C22.2956 25.9913 22.3252 25.9913 22.3252 25.9913H22.3845C22.5029 25.9913 22.6213 26.0209 22.7102 26.0209L23.5096 25.9321C23.5392 25.9321 23.5392 25.9321 23.5688 25.9025C23.5984 25.9025 23.5984 25.9025 23.628 25.8729H23.6577C23.8057 25.8137 23.9537 25.7841 24.1018 25.7248C24.161 25.6952 24.1906 25.6952 24.2498 25.6656C24.2794 25.6656 24.2794 25.636 24.309 25.636C24.4275 25.5768 24.5459 25.5176 24.694 25.4288L24.7236 25.3991C24.7236 25.3991 24.7236 25.3991 24.7532 25.3991C24.7828 25.3695 24.842 25.3399 24.8716 25.3103C25.0789 25.1623 25.2269 25.0438 25.375 24.8958C26.737 23.4449 26.6778 21.165 25.2269 19.803C24.5163 19.1516 23.5984 18.7963 22.6509 18.8259C21.6738 18.8555 20.7856 19.2701 20.1342 19.9511C20.0157 20.0991 19.8677 20.2472 19.7493 20.484C19.7196 20.5136 19.7196 20.5433 19.69 20.5729C19.69 20.6025 19.6604 20.6025 19.6604 20.6321V20.6617C19.6012 20.8097 19.5124 20.9282 19.4532 21.0762C19.4236 21.1354 19.3939 21.2243 19.3643 21.2835C19.3347 21.4019 19.2755 21.55 19.2459 21.7572C19.2459 21.7572 19.2163 21.8461 19.2163 21.8757V21.9053L19.1867 22.6751C19.1867 22.7343 19.1867 22.8232 19.2163 22.8824L19.2459 23.0008V23.0304C19.2459 23.06 19.2459 23.0896 19.2459 23.0896C19.2459 23.1489 19.2459 23.1785 19.2755 23.2081V23.2377V23.2673C19.3643 24.6293 18.861 26.0209 17.8839 27.0869C16.9068 28.1528 15.5744 28.7746 14.1827 28.8042H14.1235H14.0939H14.0347C14.0051 28.8042 14.0051 28.8042 13.9755 28.8042L13.176 28.745L12.9688 28.7746H12.8799C12.8207 28.7746 12.7911 28.7746 12.7319 28.7746C12.7023 28.7746 12.6431 28.7746 12.6135 28.7746H12.5839H12.5542C11.1922 28.8042 9.8006 28.2712 8.7939 27.2645C7.75758 26.2578 7.1654 24.8958 7.1654 23.5338V23.3561V23.3265V23.2969V23.2673C7.1654 23.2377 7.1654 23.2377 7.1654 23.2081C7.1654 23.1785 7.1654 23.1785 7.1654 23.1489V23.0896V23.06C7.1654 22.9416 7.195 22.8528 7.195 22.7639L7.13579 21.9645C7.13579 21.9349 7.13579 21.9349 7.10618 21.9053C7.10618 21.8757 7.10618 21.8461 7.07657 21.8164C7.04696 21.6388 6.98774 21.4907 6.95813 21.3723C6.92852 21.3131 6.89891 21.2243 6.86931 21.165C6.81009 21.0466 6.75087 20.8986 6.66204 20.7801C6.66204 20.7505 6.63243 20.7505 6.63243 20.7209C6.60282 20.6913 6.57322 20.6321 6.54361 20.6025C6.39556 20.3952 6.27712 20.2472 6.12908 20.0991C5.44807 19.4181 4.53019 19.0332 3.5827 19.0332C2.6056 19.0332 1.71733 19.4181 1.03632 20.0991C0.384918 20.7505 0 21.6684 0 22.6159C0 23.593 0.384918 24.4813 1.06593 25.1623C1.21397 25.3103 1.36202 25.4288 1.56928 25.5768C1.6285 25.6064 1.65811 25.636 1.71733 25.6656C1.71733 25.6656 1.74694 25.6656 1.74694 25.6952C1.86537 25.7841 2.01342 25.8433 2.16146 25.9025C2.22068 25.9321 2.2799 25.9617 2.36873 25.9913C2.48716 26.0505 2.63521 26.0802 2.81286 26.1098C2.84247 26.1098 2.9313 26.1394 2.9313 26.1394L3.70113 26.1986H3.73074C3.78996 26.1986 3.81957 26.1986 3.87879 26.1986C3.93801 26.1986 3.96762 26.1986 3.99723 26.1986C4.05644 26.1986 4.08605 26.1986 4.14527 26.1986C4.17488 26.1986 4.2341 26.1986 4.26371 26.1986H4.29332H4.32293C5.68494 26.169 7.07657 26.7019 8.08328 27.7087C9.11959 28.7154 9.71178 30.0774 9.71178 31.4394V31.617V31.6467V31.6763V31.7059C9.71178 31.7355 9.71178 31.7947 9.71178 31.7947V31.8539V31.8835C9.71178 31.9724 9.68217 32.0612 9.68217 32.15L9.74139 32.9495V32.9791V33.0087L9.771 33.0975C9.8006 33.2455 9.85982 33.3936 9.88943 33.5416C9.91904 33.6009 9.94865 33.6601 9.94865 33.7193C9.94865 33.7193 9.94865 33.7489 9.97826 33.7489C10.0375 33.8673 10.0967 34.0154 10.1855 34.1338C10.2151 34.193 10.2447 34.2523 10.304 34.3115C10.452 34.5187 10.5704 34.6668 10.7185 34.8148C10.985 35.0813 11.3107 35.3182 11.6364 35.4662Z" fill="white"></path></g><path _ngcontent-ng-c440731796="" d="M59.3661 34.8458L51.342 9.44117H55.7242L62.4158 30.7301L69.1963 9.44117H73.5785L65.5544 34.8458H59.3661ZM74.3187 25.4005V22.0546H84.9187V25.4005H74.3187ZM89.5081 34.8458V15.7775H93.2685V20.4261L92.8243 19.834C93.0612 19.2122 93.3573 18.62 93.7718 18.1166C94.1864 17.5837 94.6601 17.1395 95.1931 16.8138C95.6668 16.4881 96.1702 16.2513 96.7327 16.0736C97.2953 15.8959 97.8875 15.7775 98.5093 15.7479C99.1015 15.6887 99.6937 15.7183 100.256 15.8071V19.7747C99.6937 19.5971 99.0423 19.5675 98.302 19.6267C97.5618 19.6859 96.9104 19.8932 96.3182 20.2485C95.726 20.5742 95.2523 20.9591 94.8674 21.4625C94.5121 21.9658 94.2456 22.5284 94.0679 23.1502C93.8903 23.772 93.8014 24.453 93.8014 25.1932V34.8754H89.5081V34.8458ZM111.922 35.3787C109.998 35.3787 108.31 34.9642 106.829 34.1351C105.379 33.3061 104.224 32.1513 103.395 30.6709C102.595 29.1904 102.181 27.4731 102.181 25.5485C102.181 23.4759 102.595 21.6697 103.395 20.13C104.194 18.5904 105.319 17.406 106.741 16.5473C108.162 15.6887 109.82 15.2742 111.685 15.2742C113.669 15.2742 115.327 15.7479 116.719 16.6658C118.11 17.5837 119.147 18.8865 119.798 20.5742C120.479 22.2619 120.716 24.2457 120.568 26.5256H116.364V24.9859C116.364 22.9133 115.979 21.4032 115.268 20.4557C114.557 19.5083 113.432 19.0345 111.893 19.0345C110.146 19.0345 108.843 19.5675 108.014 20.663C107.155 21.7289 106.741 23.2982 106.741 25.3708C106.741 27.2954 107.155 28.8055 108.014 29.8418C108.872 30.9077 110.086 31.4407 111.715 31.4407C112.751 31.4407 113.669 31.2038 114.409 30.7597C115.179 30.286 115.771 29.6049 116.186 28.7167L120.39 29.9899C119.65 31.7072 118.525 33.0396 117.015 33.9871C115.416 34.905 113.758 35.3787 111.922 35.3787ZM105.349 26.496V23.2982H118.466V26.496H105.349ZM135.639 34.8458C134.366 35.0826 133.152 35.1714 131.938 35.1418C130.724 35.1122 129.658 34.905 128.711 34.4904C127.763 34.0759 127.023 33.3949 126.549 32.5066C126.105 31.6776 125.898 30.8485 125.868 29.9899C125.838 29.1312 125.838 28.1541 125.838 27.0882V10.5071H130.073V26.8217C130.073 27.5915 130.073 28.2429 130.102 28.8351C130.132 29.3977 130.25 29.8714 130.487 30.2563C130.902 30.967 131.583 31.3519 132.53 31.4407C133.448 31.5295 134.514 31.4703 135.698 31.2927V34.8458H135.639ZM122.374 19.1233V15.7775H135.669V19.1233H122.374ZM145.084 35.3787C143.722 35.3787 142.538 35.1122 141.59 34.6089C140.643 34.0759 139.903 33.3653 139.429 32.5066C138.955 31.648 138.718 30.6709 138.718 29.6346C138.718 28.7167 138.866 27.8876 139.163 27.177C139.459 26.4368 139.932 25.815 140.584 25.282C141.206 24.7491 142.035 24.3049 143.041 23.9496C143.811 23.7127 144.699 23.4759 145.736 23.2686C146.772 23.0613 147.897 22.8837 149.082 22.7356C150.296 22.558 151.569 22.3803 152.872 22.1731L151.361 23.0317C151.361 21.6993 151.065 20.7518 150.473 20.13C149.881 19.5083 148.874 19.1826 147.423 19.1826C146.565 19.1826 145.736 19.3898 144.936 19.7747C144.137 20.1893 143.574 20.8703 143.249 21.8474L139.37 20.6334C139.844 19.0345 140.732 17.7317 142.064 16.7546C143.397 15.7775 145.173 15.3038 147.423 15.3038C149.111 15.3038 150.592 15.5702 151.894 16.1328C153.197 16.6954 154.145 17.5837 154.767 18.8569C155.122 19.5379 155.299 20.2189 155.388 20.9295C155.448 21.6105 155.507 22.3803 155.507 23.2094V34.905H151.776V30.7893L152.398 31.4703C151.539 32.8323 150.532 33.8687 149.378 34.5201C148.223 35.053 146.802 35.3787 145.084 35.3787ZM145.913 31.9737C146.891 31.9737 147.69 31.796 148.371 31.4703C149.052 31.115 149.585 30.7005 149.999 30.2267C150.414 29.7234 150.68 29.2792 150.829 28.8351C151.065 28.3021 151.184 27.6804 151.213 26.9697C151.243 26.2591 151.273 25.6965 151.273 25.2524L152.575 25.6373C151.302 25.8446 150.207 26.0222 149.289 26.1703C148.371 26.3183 147.572 26.4664 146.92 26.6144C146.269 26.7329 145.677 26.8809 145.173 27.0586C144.67 27.2362 144.255 27.4435 143.93 27.6804C143.574 27.9172 143.337 28.1837 143.13 28.4798C142.952 28.7759 142.864 29.1312 142.864 29.5457C142.864 30.0195 142.982 30.434 143.219 30.7893C143.456 31.1446 143.782 31.4111 144.255 31.648C144.699 31.8848 145.262 31.9737 145.913 31.9737ZM160.451 12.9054V8.99703H164.715V12.9054H160.451ZM160.451 34.8458V15.7775H164.715V34.8458H160.451ZM170.341 34.8458V8.9082H174.605V34.8458H170.341Z" fill="white"></path></svg>
